<svg xmlns="http://www.w3.org/2000/svg" width="100.35" height="100.35" viewBox="0 0 100.35 100.35">
  <g id="shape2" transform="translate(240.35 6582.35) rotate(180)">
    <path id="Path_399" data-name="Path 399" d="M104.217,16.725V0H90.279V16.725A69.767,69.767,0,0,1,20.592,86.412V100.35A83.719,83.719,0,0,0,104.217,16.725Z" transform="translate(136.133 6482)" fill="#fff"/>
    <rect id="Rectangle_73" data-name="Rectangle 73" width="16.725" height="13.937" transform="translate(140 6568.411)" fill="#fff"/>
    <path id="Path_400" data-name="Path 400" d="M62.4,16.725h0V0H48.468V16.725A27.906,27.906,0,0,1,20.593,44.6V58.537A41.859,41.859,0,0,0,62.4,16.725" transform="translate(136.133 6482)" fill="#fff"/>
    <rect id="Rectangle_74" data-name="Rectangle 74" width="16.725" height="13.937" transform="translate(140 6526.598)" fill="#fff"/>
    <path id="Path_401" data-name="Path 401" d="M79.444,0H65.506V16.725A48.836,48.836,0,0,1,16.725,65.505H0V79.443H16.725A62.789,62.789,0,0,0,79.444,16.725Z" transform="translate(140 6482)" fill="#fff"/>
  </g>
</svg>
